<svg width="13" height="11" viewBox="0 0 13 11" fill="none" xmlns="http://www.w3.org/2000/svg">
<path d="M0.5 3.83333H12.5M3.16667 7.16667H3.83333M6.5 7.16667H7.16667M2.5 9.83333H10.5C11.0304 9.83333 11.5391 9.62262 11.9142 9.24755C12.2893 8.87247 12.5 8.36377 12.5 7.83333V2.5C12.5 1.96957 12.2893 1.46086 11.9142 1.08579C11.5391 0.710714 11.0304 0.5 10.5 0.5H2.5C1.96957 0.5 1.46086 0.710714 1.08579 1.08579C0.710714 1.46086 0.5 1.96957 0.5 2.5V7.83333C0.5 8.36377 0.710714 8.87247 1.08579 9.24755C1.46086 9.62262 1.96957 9.83333 2.5 9.83333Z" stroke="#44403C" stroke-linecap="round" stroke-linejoin="round"/>
</svg>
