<svg width="20" height="20" viewBox="0 0 20 20" fill="none" xmlns="http://www.w3.org/2000/svg">
<g clip-path="url(#clip0_99072_131)">
<path d="M6.66671 20C8.50673 20 10.0001 18.5066 10.0001 16.6666V13.3333H6.66671C4.8267 13.3333 3.33333 14.8266 3.33333 16.6666C3.33333 18.5066 4.8267 20 6.66671 20Z" fill="#0ACF83"/>
<path d="M3.33333 9.99999C3.33333 8.15999 4.8267 6.66663 6.66671 6.66663H10.0001V13.3333H6.66671C4.8267 13.3333 3.33333 11.84 3.33333 9.99999Z" fill="#A259FF"/>
<path d="M3.33333 3.33336C3.33333 1.49336 4.8267 0 6.66671 0H10.0001V6.66664H6.66671C4.8267 6.66664 3.33333 5.17336 3.33333 3.33336Z" fill="#F24E1E"/>
<path d="M9.99989 0H13.3333C15.1733 0 16.6667 1.49336 16.6667 3.33336C16.6667 5.17336 15.1733 6.66664 13.3333 6.66664H9.99989V0Z" fill="#FF7262"/>
<path d="M16.6667 9.99999C16.6667 11.84 15.1733 13.3333 13.3333 13.3333C11.4933 13.3333 9.99989 11.84 9.99989 9.99999C9.99989 8.15999 11.4933 6.66663 13.3333 6.66663C15.1733 6.66663 16.6667 8.15999 16.6667 9.99999Z" fill="#1ABCFE"/>
</g>
<defs>
<clipPath id="clip0_99072_131">
<rect width="20" height="20" fill="white"/>
</clipPath>
</defs>
</svg>
