<svg width="20" height="20" viewBox="0 0 20 20" fill="none" xmlns="http://www.w3.org/2000/svg">
<g clip-path="url(#clip0_99072_383)">
<path fill-rule="evenodd" clip-rule="evenodd" d="M10.0002 0.416672C7.62625 0.417903 5.33011 1.25872 3.5224 2.78877C1.71468 4.31883 0.513258 6.43835 0.132959 8.76834C-0.24734 11.0983 0.218277 13.4869 1.44656 15.5068C2.67485 17.5268 4.5857 19.0465 6.83745 19.7941C7.33422 19.8864 7.52134 19.5785 7.52134 19.3167C7.52134 19.0549 7.5114 18.2958 7.50809 17.466C4.72617 18.067 4.13833 16.2921 4.13833 16.2921C3.68461 15.1395 3.02887 14.8366 3.02887 14.8366C2.12143 14.2208 3.09677 14.2323 3.09677 14.2323C4.1019 14.3031 4.63013 15.2581 4.63013 15.2581C5.52101 16.7778 6.96992 16.3382 7.53955 16.0813C7.62897 15.4376 7.88895 14.9996 8.17542 14.751C5.9532 14.5007 3.61837 13.6478 3.61837 9.83786C3.6046 8.84976 3.97336 7.89422 4.64835 7.16891C4.54568 6.91864 4.2029 5.9077 4.74604 4.53453C4.74604 4.53453 5.58559 4.2678 7.4965 5.55371C9.13556 5.10803 10.8649 5.10803 12.504 5.55371C14.4132 4.2678 15.2511 4.53453 15.2511 4.53453C15.7959 5.90441 15.4531 6.91535 15.3504 7.16891C16.0276 7.89433 16.3971 8.85155 16.3821 9.84115C16.3821 13.6593 14.0423 14.5007 11.8167 14.746C12.1744 15.0556 12.494 15.6598 12.494 16.5884C12.494 17.9188 12.4824 18.989 12.4824 19.3167C12.4824 19.5818 12.6629 19.8913 13.1696 19.7941C15.4216 19.0464 17.3327 17.5264 18.5609 15.5061C19.7892 13.4858 20.2546 11.0969 19.8738 8.76671C19.4931 6.43651 18.2911 4.31697 16.4828 2.78718C14.6745 1.25739 12.3778 0.417123 10.0035 0.416672H10.0002Z" fill="#191717"/>
<path d="M3.78704 14.6933C3.76551 14.7427 3.68603 14.7576 3.62145 14.723C3.55686 14.6884 3.50885 14.6242 3.53203 14.5731C3.55521 14.5221 3.63304 14.5089 3.69762 14.5435C3.7622 14.5781 3.81187 14.6439 3.78704 14.6933Z" fill="#191717"/>
<path d="M4.19275 15.1428C4.15845 15.16 4.11922 15.1648 4.08176 15.1564C4.04431 15.148 4.01096 15.1269 3.98742 15.0967C3.92284 15.0276 3.90958 14.9321 3.95926 14.8893C4.00894 14.8465 4.09836 14.8662 4.16294 14.9354C4.22752 15.0045 4.24242 15.1 4.19275 15.1428Z" fill="#191717"/>
<path d="M4.58687 15.7142C4.5256 15.757 4.42127 15.7142 4.36331 15.6285C4.34729 15.6132 4.33454 15.5948 4.32584 15.5744C4.31713 15.554 4.31264 15.5321 4.31264 15.51C4.31264 15.4879 4.31713 15.466 4.32584 15.4456C4.33454 15.4252 4.34729 15.4068 4.36331 15.3915C4.42458 15.3503 4.52891 15.3915 4.58687 15.4754C4.64482 15.5594 4.64648 15.6714 4.58687 15.7142V15.7142Z" fill="#191717"/>
<path d="M5.12171 16.2674C5.06707 16.3283 4.95612 16.3118 4.86505 16.2295C4.77397 16.1472 4.75244 16.0352 4.80709 15.9759C4.86173 15.9167 4.97268 15.9331 5.06706 16.0138C5.16145 16.0945 5.17967 16.2081 5.12171 16.2674V16.2674Z" fill="#191717"/>
<path d="M5.87181 16.5901C5.84697 16.6675 5.73437 16.702 5.62176 16.6691C5.50916 16.6362 5.43465 16.544 5.45617 16.4649C5.4777 16.3859 5.59196 16.3497 5.70622 16.3859C5.82047 16.4221 5.89333 16.5094 5.87181 16.5901Z" fill="#191717"/>
<path d="M6.68986 16.6461C6.68986 16.7267 6.59713 16.7959 6.47791 16.7975C6.35868 16.7992 6.26099 16.7333 6.26099 16.6526C6.26099 16.572 6.35371 16.5028 6.47294 16.5012C6.59216 16.4995 6.68986 16.5637 6.68986 16.6461Z" fill="#191717"/>
<path d="M7.45158 16.5193C7.46649 16.6 7.38369 16.6839 7.26447 16.7037C7.14524 16.7234 7.04092 16.6757 7.02602 16.5967C7.01111 16.5176 7.09722 16.432 7.21313 16.4106C7.32905 16.3892 7.43668 16.4386 7.45158 16.5193Z" fill="#191717"/>
</g>
<defs>
<clipPath id="clip0_99072_383">
<rect width="20" height="20" fill="white"/>
</clipPath>
</defs>
</svg>
