<svg width="12" height="12" viewBox="0 0 12 12" fill="none" xmlns="http://www.w3.org/2000/svg">
<path d="M0.695262 0.695262C0.570238 0.820287 0.5 0.989856 0.5 1.16667V2.5C0.5 2.67681 0.570238 2.84638 0.695262 2.9714C0.820287 3.09643 0.989856 3.16667 1.16667 3.16667H10.5C10.6768 3.16667 10.8464 3.09643 10.9714 2.9714C11.0964 2.84638 11.1667 2.67681 11.1667 2.5V1.16667C11.1667 0.989856 11.0964 0.820287 10.9714 0.695262C10.8464 0.570238 10.6768 0.5 10.5 0.5H1.16667C0.989856 0.5 0.820287 0.570238 0.695262 0.695262Z" stroke="#FAFAF9" stroke-linecap="round" stroke-linejoin="round"/>
<path d="M0.695262 6.0286C0.570238 6.15362 0.5 6.32319 0.5 6.5V10.5C0.5 10.6768 0.570238 10.8464 0.695262 10.9714C0.820287 11.0964 0.989856 11.1667 1.16667 11.1667H5.16667C5.34348 11.1667 5.51305 11.0964 5.63807 10.9714C5.7631 10.8464 5.83333 10.6768 5.83333 10.5V6.5C5.83333 6.32319 5.7631 6.15362 5.63807 6.0286C5.51305 5.90357 5.34348 5.83333 5.16667 5.83333H1.16667C0.989856 5.83333 0.820287 5.90357 0.695262 6.0286Z" stroke="#FAFAF9" stroke-linecap="round" stroke-linejoin="round"/>
<path d="M8.69526 6.0286C8.57024 6.15362 8.5 6.32319 8.5 6.5V10.5C8.5 10.6768 8.57024 10.8464 8.69526 10.9714C8.82029 11.0964 8.98986 11.1667 9.16667 11.1667H10.5C10.6768 11.1667 10.8464 11.0964 10.9714 10.9714C11.0964 10.8464 11.1667 10.6768 11.1667 10.5V6.5C11.1667 6.32319 11.0964 6.15362 10.9714 6.0286C10.8464 5.90357 10.6768 5.83333 10.5 5.83333H9.16667C8.98986 5.83333 8.82029 5.90357 8.69526 6.0286Z" stroke="#FAFAF9" stroke-linecap="round" stroke-linejoin="round"/>
</svg>
