<svg width="12" height="13" viewBox="0 0 12 13" fill="none" xmlns="http://www.w3.org/2000/svg">
<path d="M7.83335 9.83333H11.1667L10.23 8.89667C10.1042 8.77085 10.0045 8.62149 9.9364 8.45712C9.86834 8.29275 9.83332 8.11657 9.83335 7.93867V5.83333C9.83345 5.00596 9.57707 4.19889 9.0995 3.52326C8.62194 2.84762 7.94667 2.33664 7.16668 2.06067V1.83333C7.16668 1.47971 7.02621 1.14057 6.77616 0.890524C6.52611 0.640476 6.18697 0.5 5.83335 0.5C5.47973 0.5 5.14059 0.640476 4.89054 0.890524C4.64049 1.14057 4.50002 1.47971 4.50002 1.83333V2.06067C2.94668 2.61 1.83335 4.092 1.83335 5.83333V7.93933C1.83335 8.298 1.69068 8.64267 1.43668 8.89667L0.500015 9.83333H3.83335M7.83335 9.83333H3.83335M7.83335 9.83333V10.5C7.83335 11.0304 7.62264 11.5391 7.24756 11.9142C6.87249 12.2893 6.36378 12.5 5.83335 12.5C5.30292 12.5 4.79421 12.2893 4.41913 11.9142C4.04406 11.5391 3.83335 11.0304 3.83335 10.5V9.83333" stroke="#44403C" stroke-linecap="round" stroke-linejoin="round"/>
</svg>
