<svg width="13" height="13" viewBox="0 0 13 13" fill="none" xmlns="http://www.w3.org/2000/svg">
<path d="M10.5 4.5V6.5V4.5ZM10.5 6.5V8.5V6.5ZM10.5 6.5H12.5H10.5ZM10.5 6.5H8.5H10.5ZM7.16667 3.16667C7.16667 3.87391 6.88572 4.55219 6.38562 5.05229C5.88552 5.55238 5.20724 5.83333 4.5 5.83333C3.79276 5.83333 3.11448 5.55238 2.61438 5.05229C2.11428 4.55219 1.83333 3.87391 1.83333 3.16667C1.83333 2.45942 2.11428 1.78115 2.61438 1.28105C3.11448 0.780951 3.79276 0.5 4.5 0.5C5.20724 0.5 5.88552 0.780951 6.38562 1.28105C6.88572 1.78115 7.16667 2.45942 7.16667 3.16667V3.16667ZM0.5 11.8333C0.5 10.7725 0.921428 9.75505 1.67157 9.00491C2.42172 8.25476 3.43913 7.83333 4.5 7.83333C5.56087 7.83333 6.57828 8.25476 7.32843 9.00491C8.07857 9.75505 8.5 10.7725 8.5 11.8333V12.5H0.5V11.8333Z" stroke="#44403C" stroke-linecap="round" stroke-linejoin="round"/>
</svg>
