<svg width="13" height="12" viewBox="0 0 13 12" fill="none" xmlns="http://www.w3.org/2000/svg">
<path d="M9.83333 3.16667L12.5 5.83333L9.83333 8.5M12.5 5.83333H3.16667M7.16667 8.5V9.16667C7.16667 9.6971 6.95595 10.2058 6.58088 10.5809C6.20581 10.956 5.6971 11.1667 5.16667 11.1667H2.5C1.96957 11.1667 1.46086 10.956 1.08579 10.5809C0.710714 10.2058 0.5 9.6971 0.5 9.16667V2.5C0.5 1.96957 0.710714 1.46086 1.08579 1.08579C1.46086 0.710714 1.96957 0.5 2.5 0.5H5.16667C5.6971 0.5 6.20581 0.710714 6.58088 1.08579C6.95595 1.46086 7.16667 1.96957 7.16667 2.5V3.16667" stroke="#44403C" stroke-linecap="round" stroke-linejoin="round"/>
</svg>
