<svg width="13" height="9" viewBox="0 0 13 9" fill="none" xmlns="http://www.w3.org/2000/svg">
<path d="M0.5 3.16667H12.5M0.5 5.83333H12.5M6.5 3.16667V8.5M1.83333 8.5H11.1667C11.5203 8.5 11.8594 8.35952 12.1095 8.10948C12.3595 7.85943 12.5 7.52029 12.5 7.16667V1.83333C12.5 1.47971 12.3595 1.14057 12.1095 0.890524C11.8594 0.640476 11.5203 0.5 11.1667 0.5H1.83333C1.47971 0.5 1.14057 0.640476 0.890524 0.890524C0.640476 1.14057 0.5 1.47971 0.5 1.83333V7.16667C0.5 7.52029 0.640476 7.85943 0.890524 8.10948C1.14057 8.35952 1.47971 8.5 1.83333 8.5Z" stroke="#44403C" stroke-linecap="round" stroke-linejoin="round"/>
</svg>
