<svg width="16" height="16" viewBox="0 0 16 16" fill="none" xmlns="http://www.w3.org/2000/svg">
<path d="M14.3067 8.94717C14.3067 8.51213 14.2714 8.07474 14.1961 7.64676H8.15967V10.1112H11.6165C11.473 10.906 11.0121 11.6091 10.3372 12.0559V13.655H12.3995C13.6106 12.5404 14.3067 10.8943 14.3067 8.94717Z" fill="#4285F4"/>
<path d="M8.15943 15.2C9.88548 15.2 11.3411 14.6333 12.4017 13.655L10.3393 12.056C9.76555 12.4463 9.02481 12.6674 8.16179 12.6674C6.49218 12.6674 5.07653 11.541 4.5686 10.0266H2.44043V11.675C3.52685 13.8361 5.73967 15.2 8.15943 15.2V15.2Z" fill="#34A853"/>
<path d="M4.56636 10.0265C4.29828 9.23168 4.29828 8.37101 4.56636 7.57618V5.92773H2.44054C1.53284 7.73609 1.53284 9.8666 2.44054 11.675L4.56636 10.0265V10.0265Z" fill="#FBBC04"/>
<path d="M8.15943 4.93306C9.07184 4.91895 9.95368 5.26228 10.6145 5.8925L12.4416 4.06533C11.2847 2.97891 9.74909 2.38161 8.15943 2.40043C5.73967 2.40043 3.52685 3.76433 2.44043 5.92777L4.56624 7.57622C5.07183 6.05946 6.48982 4.93306 8.15943 4.93306V4.93306Z" fill="#EA4335"/>
</svg>
